<mxfile host="app.diagrams.net" modified="2023-09-08T18:07:59.543Z" agent="Mozilla/5.0 (Macintosh; Intel Mac OS X 10_15_7) AppleWebKit/537.36 (KHTML, like Gecko) Chrome/116.0.0.0 Safari/537.36" etag="oVt7vSE4HTWUL-9oXbPY" version="21.7.4" type="github">
  <diagram name="Page-1" id="099fd60b-425b-db50-ffb0-6b813814b670">
    <mxGraphModel dx="2899" dy="1286" grid="1" gridSize="10" guides="1" tooltips="1" connect="1" arrows="1" fold="1" page="1" pageScale="1" pageWidth="1100" pageHeight="850" background="none" math="0" shadow="0">
      <root>
        <mxCell id="0" />
        <mxCell id="1" parent="0" />
        <mxCell id="SKl03I9PG79rLvIPN3ia-1" value="" style="strokeColor=#666666;html=1;labelPosition=right;align=left;spacingLeft=15;shadow=0;dashed=0;fillColor=#ffffff;outlineConnect=0;shape=stencil(xZfRboMgFIafxlsCHAS5XLruYrvZKxhH16ZOGnTZuqffEbomWNdmS9pDjOCPx+/8Sk6kgEW/rneukLyr31wB94WUT27fD74bxce62WL3XHeuxV4qPO18GHq8DYfrFCAUs2VSPg6K5szCKMGy4Hc4MR6wWPngXoN/716yiZ/pfgh+6xrf+oBC6uPzCgk8tjh+mA1ebdp2PlTGdiY0uGbA0WeKSBC+z65OjM24/z2vZOzvma9iO5f5+C7z9A0DlTkQDCZfR5WM68zEwVIdmn7z5Y7GlCYzNvGkTeZJMw4TT2rq6VLuV19IQl7+FPlS4kxX/8x6gq7I0FKRoeH4pNujNRlaSTp0xbSlQZdYwyQNWotj9bk5WpO9cANkro0lQ1e4zIiqmUWSIUIbMrTgwIConAlu6diiZEYQsRFliIqpGH9YiUqaAKDzDZaOjRsAc/WCCgtUTnZ8UU2bzih8Aw==);" vertex="1" parent="1">
          <mxGeometry x="-1050" y="70" width="1010" height="90" as="geometry" />
        </mxCell>
      </root>
    </mxGraphModel>
  </diagram>
</mxfile>
